:SAMPLES-PER-SECOND 30
:FULLY-SPECIFIED
:DEGREES
887
root  -13.8604 37.406 3.90129 -19.6609 -88.7624 24.2728
RightUpLeg  -40.7534 -20.8529 -2.38812
RightLeg  56.639 -6.9844 -11.6451
RightFoot  -3.46113 -0.314435 4.21434
RightToes  5.82063e-011 0 -3.6325e-017
Spine  63.9929 -4.56191 5.70556
Spine1  16.4375 0.930806 -5.34123
HEad  -42.3052 -2.66442 0.0270484
LeftShoulder1  2.77112 -19.6281 -3.99365
LeftArm  -81.2126 -81.6303 18.0712
LeftForeArm  -4.99505 -4.70986 -0.00356451
LeftHand  -0.244104 0.0205437 5.32207
RightShoulder  2.0292 10.4227 6.98288
RightArm  -66.687 69.8813 -4.41445
RightForeArm  -50.7442 1.21394 2.2908
RightHand  -0.853967 5.04561 -9.7747
LeftUpLeg  -39.3666 18.3811 -13.956
LeftLeg  29.4275 0.415736 0.602392
LeftFoot  2.13585 -1.39699 11.6512
LeftToes  1.45487e-011 -6.19069e-011 1.65092e-011
888
root  -12.8477 37.2719 3.69107 -12.4597 -88.0762 16.6689
RightUpLeg  -37.5543 -19.9802 -3.06266
RightLeg  60.4036 -5.36809 -10.6037
RightFoot  -4.54 -0.400422 6.35694
RightToes  5.82063e-011 0 -3.6325e-017
Spine  63.4653 -4.41662 5.41978
Spine1  17.0101 0.755398 -5.04112
HEad  -42.0292 -2.45061 -0.140913
LeftShoulder1  2.91301 -19.5608 -4.72432
LeftArm  -83.6997 -81.7853 21.3101
LeftForeArm  -4.79061 -3.94158 -0.116611
LeftHand  -0.244104 0.0205437 5.32207
RightShoulder  2.12307 10.4617 7.6898
RightArm  -66.6592 70.4362 -4.59643
RightForeArm  -50.8678 1.17636 2.47364
RightHand  -0.891983 5.16732 -10.0838
LeftUpLeg  -39.5463 18.3734 -14.4475
LeftLeg  26.8668 -0.475765 0.082411
LeftFoot  4.60547 -1.78237 12.4793
LeftToes  1.45487e-011 -6.19069e-011 1.65092e-011
889
root  -11.8258 37.0999 3.4217 -10.4622 -87.1809 14.3949
RightUpLeg  -33.3947 -19.3144 -3.33133
RightLeg  60.9538 -3.29639 -6.98198
RightFoot  -8.31047 -0.313322 9.85941
RightToes  5.82063e-011 0 -3.6325e-017
Spine  62.8051 -4.20469 5.14231
Spine1  17.3654 0.479782 -4.45471
HEad  -41.6061 -2.33715 -0.148346
LeftShoulder1  3.04673 -19.8167 -5.21035
LeftArm  -83.5323 -81.7532 21.55
LeftForeArm  -4.46881 -3.01208 -0.0868731
LeftHand  -0.244104 0.0205437 5.32207
RightShoulder  2.27529 10.7055 8.59722
RightArm  -66.1556 70.8081 -4.31507
RightForeArm  -50.9689 1.1102 2.6558
RightHand  -0.946218 5.28368 -10.5641
LeftUpLeg  -40.1607 18.6811 -15.147
LeftLeg  24.7822 -2.13579 -0.741054
LeftFoot  7.75492 -2.07569 12.0309
LeftToes  1.45487e-011 -6.19069e-011 1.65092e-011
890
root  -10.7537 36.897 3.13725 -7.04712 -86.7511 10.8446
RightUpLeg  -30.1257 -18.7255 -2.52991
RightLeg  58.7441 -2.37237 -4.69451
RightFoot  -14.7149 0.175274 10.0437
RightToes  5.82063e-011 0 -3.6325e-017
Spine  62.2101 -3.92143 5.24479
Spine1  17.6702 0.499703 -3.97173
HEad  -41.3279 -2.32378 -0.0190721
LeftShoulder1  3.18453 -20.351 -5.52617
LeftArm  -82.8339 -81.5984 21.6055
LeftForeArm  -4.49108 -1.82327 -0.136407
LeftHand  -0.244104 0.0205437 5.32207
RightShoulder  2.40868 10.9716 9.29831
RightArm  -64.9193 70.8758 -3.03133
RightForeArm  -51.3303 1.02473 2.75973
RightHand  -1.04291 5.46532 -11.4201
LeftUpLeg  -41.182 19.5353 -15.8172
LeftLeg  22.8621 -3.71104 -1.38773
LeftFoot  11.0681 -2.279 11.102
LeftToes  1.45487e-011 -6.19069e-011 1.65092e-011
891
root  -9.57593 36.6666 2.88415 2.22382 -87.0417 1.27173
RightUpLeg  -29.274 -18.5314 -0.595959
RightLeg  55.9331 -2.96601 -5.14685
RightFoot  -20.0186 0.367902 6.60552
RightToes  5.82063e-011 0 -3.6325e-017
Spine  61.9176 -3.59564 5.77841
Spine1  17.6184 0.904719 -3.8796
HEad  -41.4331 -2.24016 -0.1937
LeftShoulder1  3.25396 -20.6371 -5.66903
LeftArm  -83.9159 -81.5646 23.826
LeftForeArm  -5.0565 -0.457898 -0.334093
LeftHand  -0.244104 0.0205437 5.32207
RightShoulder  2.45624 11.1794 9.39646
RightArm  -64.0592 70.8384 -1.77481
RightForeArm  -51.3919 0.641571 2.6354
RightHand  -1.14425 5.81415 -12.1265
LeftUpLeg  -42.1755 20.5436 -15.9566
LeftLeg  20.605 -5.03251 -1.76215
LeftFoot  14.524 -2.57962 10.7828
LeftToes  1.45487e-011 -6.19069e-011 1.65092e-011
892
root  -8.29568 36.4426 2.6757 17.8554 -87.2612 -15.0636
RightUpLeg  -30.5376 -19.0839 1.7798
RightLeg  54.6132 -4.1229 -6.65029
RightFoot  -21.1107 0.0890013 2.60656
RightToes  5.82063e-011 0 -3.6325e-017
Spine  62.1415 -3.45219 6.473
Spine1  17.3664 1.27212 -3.83786
HEad  -42.0249 -1.91906 -0.838426
LeftShoulder1  3.16008 -20.3688 -5.39858
LeftArm  -87.9762 -81.6341 28.6892
LeftForeArm  -5.79855 0.666567 -0.416515
LeftHand  -0.244104 0.0205437 5.32207
RightShoulder  2.42071 11.3138 8.95806
RightArm  -65.1557 71.0089 -2.4302
RightForeArm  -50.9644 0.19388 2.33392
RightHand  -1.176 6.0502 -12.2056
LeftUpLeg  -42.9822 21.1001 -15.1917
LeftLeg  18.5157 -7.05638 -2.30812
LeftFoot  19.1001 -2.22945 7.85081
LeftToes  1.45487e-011 -6.19069e-011 1.65092e-011
893
root  -7.00821 36.2397 2.49702 28.1271 -86.6958 -26.2657
RightUpLeg  -32.4159 -20.0885 3.75497
RightLeg  54.7467 -4.79542 -7.68275
RightFoot  -19.5269 -0.106511 0.371473
RightToes  5.82063e-011 0 -3.6325e-017
Spine  62.5204 -3.63292 7.08374
Spine1  17.7612 1.22471 -3.41094
HEad  -42.9932 -1.413 -1.30044
LeftShoulder1  2.94051 -19.8294 -4.69101
LeftArm  -95.0115 -81.5046 35.8637
LeftForeArm  -6.28949 1.26892 -0.166494
LeftHand  -0.244104 0.0205437 5.32207
RightShoulder  2.33503 11.2504 8.3868
RightArm  -68.3741 71.4416 -5.36578
RightForeArm  -50.8476 0.363086 2.0888
RightHand  -1.12237 5.77797 -11.9369
LeftUpLeg  -43.8156 21.1894 -13.7301
LeftLeg  17.6522 -9.29915 -2.99248
LeftFoot  23.8777 0.212746 -1.09588
LeftToes  1.45487e-011 -6.19069e-011 1.65092e-011
894
root  -5.78278 36.0501 2.35258 28.5558 -85.8555 -27.4094
RightUpLeg  -34.0274 -20.7996 5.03135
RightLeg  54.7968 -5.06559 -8.10039
RightFoot  -18.2141 -0.18125 -0.949293
RightToes  5.82063e-011 0 -3.6325e-017
Spine  62.5757 -3.87668 7.51601
Spine1  18.7963 0.909162 -2.79037
HEad  -43.8882 -0.962373 -0.982064
LeftShoulder1  2.74084 -19.435 -3.9603
LeftArm  -102.14 -81.1031 42.89
LeftForeArm  -6.45188 1.43827 0.210503
LeftHand  -0.244104 0.0205437 5.32207
RightShoulder  2.23206 10.9679 7.93753
RightArm  -71.7624 71.7999 -8.57343
RightForeArm  -51.5592 1.09775 2.00865
RightHand  -1.06098 5.19173 -11.8995
LeftUpLeg  -44.7271 20.9102 -11.9739
LeftLeg  18.5381 -9.20001 -3.10946
LeftFoot  25.1357 3.63101 -11.6139
LeftToes  1.45487e-011 -6.19069e-011 1.65092e-011
895
root  -4.57022 35.9448 2.26669 24.8746 -85.3419 -23.8792
RightUpLeg  -35.5691 -20.7676 5.74381
RightLeg  53.6491 -5.47945 -8.35238
RightFoot  -17.2986 -0.252291 -2.62341
RightToes  5.82063e-011 0 -3.6325e-017
Spine  62.6314 -3.9574 7.52915
Spine1  19.2249 0.695373 -2.56057
HEad  -44.2726 -0.772994 -0.303062
LeftShoulder1  2.65721 -19.2676 -3.64643
LeftArm  -106.131 -80.7801 47.0337
LeftForeArm  -6.45902 1.33309 0.315872
LeftHand  -0.244104 0.0205437 5.32207
RightShoulder  2.13804 10.7103 7.51063
RightArm  -73.2688 71.769 -9.95174
RightForeArm  -52.3755 1.51135 1.94933
RightHand  -1.05852 4.92936 -12.1566
LeftUpLeg  -45.6624 19.4117 -9.93113
LeftLeg  21.7058 -5.82734 -2.20321
LeftFoot  20.8497 4.29962 -15.164
LeftToes  1.45487e-011 -6.19069e-011 1.65092e-011
896
root  -3.34321 36.0053 2.26576 20.438 -85.098 -19.0642
RightUpLeg  -37.2964 -20.313 6.16482
RightLeg  51.472 -6.17223 -8.62848
RightFoot  -15.146 -0.23446 -3.95987
RightToes  5.82063e-011 0 -3.6325e-017
Spine  63.2861 -4.02293 7.2539
Spine1  18.3691 0.650745 -2.74664
HEad  -44.3252 -0.859799 -0.0305652
LeftShoulder1  2.65055 -19.1941 -3.65606
LeftArm  -107.351 -80.6968 48.6324
LeftForeArm  -6.45303 0.953578 0.1148
LeftHand  -0.244104 0.0205437 5.32207
RightShoulder  2.06609 10.631 7.03422
RightArm  -73.6069 71.3975 -10.2169
RightForeArm  -52.4345 1.31234 1.76219
RightHand  -1.0896 5.08591 -12.3259
LeftUpLeg  -46.5763 16.302 -7.44096
LeftLeg  27.1818 -0.644134 0.0104436
LeftFoot  13.6023 2.19492 -10.1461
LeftToes  1.45487e-011 -6.19069e-011 1.65092e-011
897
root  -2.15233 36.2152 2.36639 18.6843 -84.8845 -16.6537
RightUpLeg  -38.9148 -20.0131 6.57412
RightLeg  48.6624 -6.82531 -8.59165
RightFoot  -11.6588 -0.0919442 -4.41256
RightToes  5.82063e-011 0 -3.6325e-017
Spine  64.3007 -4.18796 7.17026
Spine1  17.2066 0.635022 -2.86695
HEad  -44.6364 -1.06539 -0.129439
LeftShoulder1  2.60867 -19.1792 -3.45703
LeftArm  -109.104 -80.5717 50.5005
LeftForeArm  -6.41305 0.281249 0.00208601
LeftHand  -0.244104 0.0205437 5.32207
RightShoulder  2.00953 10.5229 6.70783
RightArm  -75.1098 70.9833 -11.642
RightForeArm  -52.0617 1.24569 1.49205
RightHand  -1.10105 5.16516 -12.3624
LeftUpLeg  -47.13 12.8713 -4.76293
LeftLeg  33.7655 3.86163 3.11163
LeftFoot  7.23245 0.603779 -4.10249
LeftToes  1.45487e-011 -6.19069e-011 1.65092e-011
898
root  -1.00755 36.4993 2.55177 19.1761 -84.7167 -16.2952
RightUpLeg  -40.098 -20.0834 7.03208
RightLeg  44.9121 -7.06706 -7.81147
RightFoot  -7.96866 0.08811 -4.7777
RightToes  5.82063e-011 0 -3.6325e-017
Spine  64.9335 -4.30309 7.23988
Spine1  16.8041 0.632853 -2.80588
HEad  -45.2668 -1.24351 -0.0888493
LeftShoulder1  2.4896 -19.2279 -2.83836
LeftArm  -113.479 -80.2291 54.4259
LeftForeArm  -6.24103 -0.498769 0.236918
LeftHand  -0.244104 0.0205437 5.32207
RightShoulder  1.95988 10.2299 6.64599
RightArm  -78.1601 70.6376 -14.6822
RightForeArm  -52.1645 1.71659 1.27103
RightHand  -1.08857 4.9357 -12.4853
LeftUpLeg  -47.005 10.4746 -2.56904
LeftLeg  39.8723 5.50316 5.25096
LeftFoot  2.54845 0.325419 -2.8882
LeftToes  1.45487e-011 -6.19069e-011 1.65092e-011
899
root  0.106179 36.7768 2.80167 20.3679 -84.625 -16.4
RightUpLeg  -40.9863 -20.633 7.62823
RightLeg  40.1736 -6.65364 -6.28231
RightFoot  -4.52181 0.290227 -5.37842
RightToes  5.82063e-011 0 -3.6325e-017
Spine  65.0106 -4.30472 7.23336
Spine1  16.6795 0.64384 -2.75634
HEad  -45.5336 -1.3367 0.0498638
LeftShoulder1  2.35135 -19.2022 -2.1649
LeftArm  -118.978 -79.8591 59.2455
LeftForeArm  -5.96746 -1.05157 0.605548
LeftHand  -0.244104 0.0205437 5.32207
RightShoulder  1.91947 9.99238 6.592
RightArm  -80.7888 70.1987 -17.5836
RightForeArm  -52.9159 2.09501 1.13033
RightHand  -1.05533 4.56449 -12.5431
LeftUpLeg  -46.4063 9.1227 -1.30153
LeftLeg  44.875 5.39284 6.12547
LeftFoot  -1.095 0.2903 -3.11787
LeftToes  1.45487e-011 -6.19069e-011 1.65092e-011
900
root  1.19926 37.0138 3.11288 22.6214 -84.5174 -17.4037
RightUpLeg  -41.9546 -21.7974 8.61203
RightLeg  35.0852 -5.76165 -4.59892
RightFoot  -0.832137 0.506945 -5.57361
RightToes  5.82063e-011 0 -3.6325e-017
Spine  64.9591 -4.3526 7.24536
Spine1  15.982 0.595741 -2.76504
HEad  -45.0047 -1.35284 -0.186381
LeftShoulder1  2.24061 -19.0069 -1.71191
LeftArm  -123.467 -79.6682 63.3519
LeftForeArm  -5.76919 -1.17703 0.802974
LeftHand  -0.244104 0.0205437 5.32207
RightShoulder  1.88438 9.99379 6.29829
RightArm  -81.629 69.6722 -18.8852
RightForeArm  -53.7815 1.88774 1.01108
RightHand  -0.983402 4.13868 -12.2079
LeftUpLeg  -45.634 8.07364 -0.629199
LeftLeg  49.6117 5.37364 7.18108
LeftFoot  -3.20582 0.162023 -2.01633
LeftToes  1.45487e-011 -6.19069e-011 1.65092e-011
901
root  2.28333 37.1822 3.48591 26.0045 -84.5246 -19.6599
RightUpLeg  -42.9939 -23.2525 9.90652
RightLeg  30.1549 -4.64408 -3.16146
RightFoot  3.15259 0.688522 -5.23997
RightToes  5.82063e-011 0 -3.6325e-017
Spine  64.9337 -4.45513 7.32302
Spine1  15.1221 0.547012 -2.89027
HEad  -44.0836 -1.30387 -1.00482
LeftShoulder1  2.13766 -18.8073 -1.2923
LeftArm  -126.364 -79.5845 66.209
LeftForeArm  -5.72796 -1.05046 0.831518
LeftHand  -0.244104 0.0205437 5.32207
RightShoulder  1.8491 10.0205 5.97305
RightArm  -81.4326 69.2745 -18.9348
RightForeArm  -54.5789 1.52747 0.905287
RightHand  -0.905049 3.68834 -11.7965
LeftUpLeg  -44.0442 7.12533 -0.1401
LeftLeg  53.8165 5.36288 8.29348
LeftFoot  -4.08847 0.171264 -2.35649
LeftToes  1.45487e-011 -6.19069e-011 1.65092e-011
